  <svg width="90px" height="30px" data-name="Layer 1" viewBox="0 0 71.1 23.94">
                        <path d="M39.05 21.5l-2.61-7.89h-1.77L32 21.46l-2.57-7.85h-1.99l3.42 10.33h2.05l2.6-7.64 2.55 7.64h2.04l3.42-10.33h-1.83l-2.64 7.89zM45.08 13.61H47v10.32h-1.92zM57.9 19.29a3.48 3.48 0 0 0 .57-2 3.63 3.63 0 0 0-.53-2 3.42 3.42 0 0 0-1.53-1.26 5.65 5.65 0 0 0-2.34-.45h-4.29v10.36h1.92v-3h2.73l2.11 3h2.06l-2.37-3.4a3.34 3.34 0 0 0 1.67-1.25zm-2-.48a2.89 2.89 0 0 1-1.9.54h-2.3v-4.11h2.2a2.89 2.89 0 0 1 1.9.53 1.83 1.83 0 0 1 .65 1.52 1.85 1.85 0 0 1-.61 1.52zM62.48 19.48h4.99v-1.57h-4.99v-2.69h5.62v-1.61h-7.53v10.33h7.74v-1.61h-5.83v-2.85zM34.76 5a2.52 2.52 0 0 0 1-.92 2.62 2.62 0 0 0 .35-1.36 2.3 2.3 0 0 0-1-2A4.74 4.74 0 0 0 32.28 0h-4.84v10.32h5.13a5.17 5.17 0 0 0 3-.73 2.36 2.36 0 0 0 1-2.07 2.57 2.57 0 0 0-.5-1.63A2.62 2.62 0 0 0 34.76 5zm-5.4-3.5h2.71a2.68 2.68 0 0 1 1.54.37 1.19 1.19 0 0 1 .54 1.07A1.18 1.18 0 0 1 33.61 4a2.76 2.76 0 0 1-1.54.36h-2.71zm3.1 7.32h-3.1v-3h3.1c1.48 0 2.22.5 2.22 1.49s-.78 1.51-2.22 1.51zM41.9 0l-4.7 10.32h2l1-2.39h5.16l1 2.39h2L43.74 0zm-1 6.43l1.93-4.51 1.94 4.51zM56.98 6.99L51.29 0h-1.58v10.32h1.9V3.33l5.7 6.99h1.57V0h-1.9v6.99zM70.83 0h-2.15l-5.11 5.29V0h-1.91v10.32h1.91V7.68L65.21 6l3.64 4.32h2.24l-4.6-5.7L70.83 0z"></path>
                        <path fill="#383838" d="M23.36 14.39h-.31v-3.85a.41.41 0 0 0-.41-.41H.41a.42.42 0 0 0-.41.41v13a.42.42 0 0 0 .41.42h22.23a.41.41 0 0 0 .41-.42v-3.78h.31a.42.42 0 0 0 .42-.41v-4.54a.42.42 0 0 0-.42-.42zm-1.13 8.72H.83v-.84h.13a.41.41 0 1 0 0-.82H.83v-8.58h.13a.42.42 0 1 0 0-.83H.83V11h21.4v3.43h-6.12a.41.41 0 0 0-.41.42v4.54a.41.41 0 0 0 .41.41h6.12zm.72-7.89v3.71h-6.43v-3.71h6.43z"></path>
                        <path fill="#383838" d="M7.18 12h-.55a.42.42 0 1 0 0 .83h.55a.42.42 0 0 0 0-.83zM3.03 12h-.55a.42.42 0 0 0 0 .83h.55a.42.42 0 1 0 0-.83zM5.11 12h-.55a.42.42 0 1 0 0 .83h.55a.42.42 0 0 0 0-.83zM9.25 12H8.7a.42.42 0 1 0 0 .83h.55a.42.42 0 0 0 0-.83zM11.32 12h-.55a.42.42 0 0 0 0 .83h.55a.42.42 0 0 0 0-.83zM19.05 12.87h.55a.42.42 0 1 0 0-.83h-.55a.42.42 0 0 0 0 .83zM16.98 12.87h.55a.42.42 0 1 0 0-.83h-.55a.42.42 0 0 0 0 .83zM14.9 12.87h.55a.42.42 0 1 0 0-.83h-.55a.42.42 0 0 0 0 .83zM21.13 12.87h.55a.42.42 0 0 0 0-.83h-.55a.42.42 0 1 0 0 .83zM13.39 12h-.55a.42.42 0 0 0 0 .83h.55a.42.42 0 0 0 0-.83zM21.13 22.27h.55a.41.41 0 0 0 0-.82h-.55a.41.41 0 1 0 0 .82zM11.32 21.45h-.55a.41.41 0 1 0 0 .82h.55a.41.41 0 0 0 0-.82zM19.05 22.27h.55a.41.41 0 1 0 0-.82h-.55a.41.41 0 1 0 0 .82zM16.98 22.27h.55a.41.41 0 1 0 0-.82h-.55a.41.41 0 1 0 0 .82zM7.18 21.45h-.55a.41.41 0 1 0 0 .82h.55a.41.41 0 0 0 0-.82zM9.25 21.45H8.7a.41.41 0 1 0 0 .82h.55a.41.41 0 0 0 0-.82zM13.39 21.45h-.55a.41.41 0 1 0 0 .82h.55a.41.41 0 1 0 0-.82zM3.03 21.45h-.55a.41.41 0 1 0 0 .82h.55a.41.41 0 1 0 0-.82zM15.46 21.45h-.56a.41.41 0 1 0 0 .82h.55a.41.41 0 1 0 0-.82zM5.11 21.45h-.55a.41.41 0 1 0 0 .82h.55a.41.41 0 0 0 0-.82zM18.73 15.68a1.39 1.39 0 1 0 1.39 1.39 1.39 1.39 0 0 0-1.39-1.39zm0 1.95a.56.56 0 1 1 0-1.12.56.56 0 0 1 0 1.12z"></path>
                        <path fill="#0ec661" d="M14.55 5.34a1.28 1.28 0 0 0-.94-.34 1.29 1.29 0 0 0-.94.39 1.33 1.33 0 1 0 1.88 1.88 1.3 1.3 0 0 0 0-1.88zm-.58 1.3a.51.51 0 0 1-.71 0 .51.51 0 0 1 .35-.87.53.53 0 0 1 .36.15.51.51 0 0 1 0 .72z"></path>
                        <path fill="#0ec661" d="M21.41 6L15.74.3a1.08 1.08 0 0 0-1.49 0l-.16.16L13.9.3a1.08 1.08 0 0 0-1.49 0L2.6 10.13h1.17L13.01.88a.27.27 0 0 1 .17-.06.23.23 0 0 1 .16.06l.16.12-9.08 9.09h1.21L8.81 7a.42.42 0 0 1 .09-.19.46.46 0 0 1 .15-.09l4-4a.21.21 0 0 1 .12-.05l4.06 4.06a.17.17 0 0 1-.05.12l-3.28 3.28h1.16l2.72-2.72a1 1 0 0 0 .29-.62.84.84 0 0 0-.24-.66l-4.07-4.06L13.7 2l.39-.39 4.92 4.92a.24.24 0 0 1 0 .33l-3.26 3.25h1.15l2.67-2.67a1.06 1.06 0 0 0 0-1.49L14.67 1l.16-.16a.25.25 0 0 1 .16-.06.25.25 0 0 1 .17.06l5.67 5.67a.23.23 0 0 1 .06.16.25.25 0 0 1-.06.17l-3.26 3.25h1.17l2.67-2.67a1.06 1.06 0 0 0 .31-.75 1 1 0 0 0-.31-.67z"></path>
                        <path fill="#0ec661" d="M8.9 6.81a.42.42 0 0 0-.09.14l.24-.23a.46.46 0 0 0-.15.09zM13.22 10a1.21 1.21 0 0 0 .07-1v-.08a1.21 1.21 0 0 0-1.72-.57l-.67-.57a1 1 0 0 1 .18-.06.38.38 0 0 0-.18-.72 2.44 2.44 0 0 0-.54.23l-.14-.14A.37.37 0 0 0 9.81 7l-.21.22a.36.36 0 0 0 .08.4l.13.13a1.12 1.12 0 0 0 1.34 1.65l.19-.08.64.64-.2.06a.34.34 0 0 0-.21.14h1.69l-.1-.09zm-2.81-1.57a.37.37 0 0 1 0-.11l.35.35a.34.34 0 0 1-.35-.24zm1.75.57c.16 0 .28.08.41.3a.83.83 0 0 1 0 .13z"></path>
                    </svg>