  <svg width="130" height="40" viewBox="0 0 130 40" fill="none">
                        <path fill-rule="evenodd" clip-rule="evenodd" d="M4.29874 0H19.6587C20.5791 0 21.4596 0.687933 21.3315 1.50385L19.9628 10.303H19.9548V10.311C19.9548 10.319 19.9548 10.335 19.9548 10.343L19.9388 10.423C19.8748 10.671 19.6346 10.855 19.3385 10.855H4.57885C4.26675 10.855 4.00257 10.647 3.97057 10.367L2.62589 1.50385C2.50583 0.687933 3.37829 0 4.29874 0ZM0.961032 17.0624C4.21868 19.3021 8.04469 20.486 11.9907 20.486C15.8327 20.486 19.5946 19.3981 22.7723 17.2383C24.7413 15.9025 25.7018 18.2222 24.3891 19.0622C20.6431 21.4459 16.457 22.9098 11.9907 22.9098C7.5244 22.9098 3.39429 21.3819 -0.383653 19.0782C-0.751889 18.8462 -1 18.4622 -1 18.0143C-1 16.9504 0.00851285 16.4064 0.961032 17.0624ZM10.582 27.1734C11.2703 26.8614 12.7511 26.8454 13.4394 27.1574C13.9277 25.4935 15.4645 24.3337 17.2254 24.3337C19.4025 24.3337 21.1714 26.1015 21.1714 28.2773C21.1714 30.4531 19.4025 32.2209 17.2254 32.2209C15.0483 32.2209 13.2794 30.4531 13.2794 28.2773C13.2794 28.2453 13.2794 28.2053 13.2794 28.1733C12.8391 27.7733 11.1903 27.8133 10.7341 28.1893C10.7341 28.2213 10.7341 28.2453 10.7341 28.2773C10.7341 30.4531 8.96514 32.2209 6.788 32.2209C4.61092 32.2209 2.842 30.4531 2.842 28.2773C2.842 26.1015 4.61092 24.3337 6.788 24.3337C8.55691 24.3257 10.1017 25.5015 10.582 27.1734ZM17.2174 25.2456C15.5526 25.2456 14.1998 26.5974 14.1998 28.2613C14.1998 29.9251 15.5526 31.277 17.2174 31.277C18.8823 31.277 20.235 29.9251 20.235 28.2613C20.243 26.5974 18.8903 25.2456 17.2174 25.2456ZM6.796 25.2456C5.13114 25.2456 3.77846 26.5974 3.77846 28.2613C3.77846 29.9251 5.13114 31.277 6.796 31.277C8.46085 31.277 9.8136 29.9251 9.8136 28.2613C9.8136 26.5974 8.46085 25.2456 6.796 25.2456ZM1.2732 35.7326C1.46525 36.9884 1.96955 38.0123 2.906 38.7563C5.54737 40.8441 9.71755 40.1561 12.0148 37.7884C14.3039 40.1401 18.4741 40.8281 21.1074 38.7403C22.0519 37.9963 22.5482 36.9724 22.7402 35.7166C21.1874 36.8924 19.9308 37.5404 17.6737 36.6365C15.3365 35.7006 14.2559 32.2769 12.0067 35.2126C9.8296 32.2689 8.66097 35.7246 6.34777 36.6525C4.08263 37.5484 2.81794 36.9085 1.2732 35.7326ZM19.5626 12.8628L19.5546 12.8868C19.5466 12.9348 19.5306 12.9828 19.5066 13.0307L19.5306 13.0387L18.9543 16.7744C18.6742 18.5742 13.3034 19.0462 11.7906 19.0462C10.3418 19.0462 5.2032 18.5262 4.93909 16.7744L4.34674 12.8388C4.34674 12.8228 4.34674 12.8068 4.34674 12.7988C4.34674 12.4948 4.61892 12.2468 4.96309 12.2468H18.9543C19.2905 12.2468 19.5706 12.4948 19.5706 12.7988C19.5706 12.8228 19.5706 12.8468 19.5626 12.8628Z" fill="#8EA652"></path>
                        <path fill-rule="evenodd" clip-rule="evenodd" d="M108.4 8.48719L108.432 5.47948H112.075L112.035 8.48719H108.4ZM108.432 24.9896L108.4 10.167H112.035L112.075 24.9896H108.432ZM74.8714 8.48719L74.9032 5.47948H78.5449L78.5049 8.48719H74.8714ZM68.3798 21.5739C68.796 21.182 69.156 20.59 69.3641 19.9021C69.5722 19.2142 69.6766 18.4302 69.6766 17.5423C69.6766 16.6624 69.5803 15.8785 69.3722 15.2065C69.1641 14.5266 68.8679 13.9107 68.4198 13.4707C67.9235 13.0228 67.3236 12.7668 66.7311 12.7668C64.61 12.7668 64.2093 14.7186 64.2093 15.6625V18.9582C64.2093 22.1739 66.2349 22.2539 66.6511 22.2539C67.2592 22.2379 67.9635 21.9659 68.3798 21.5739ZM94.441 22.3339C94.6891 22.2379 94.9372 22.0939 95.1616 21.8939C95.3934 21.7019 95.5778 21.4299 95.7297 21.11C95.8741 20.782 95.9541 20.39 95.9622 19.9181V17.9343C95.4741 17.9263 95.0016 17.9663 94.5454 18.0463C94.0892 18.1183 93.6648 18.2542 93.2967 18.4462C92.9205 18.6462 92.6242 18.9182 92.408 19.2542C92.1843 19.6061 92.0717 19.9021 92.0643 20.438C92.0717 20.902 92.1524 21.286 92.3042 21.5819C92.448 21.8779 92.6642 22.0939 92.9123 22.2379C93.1604 22.3819 93.4404 22.4538 93.7367 22.4458C93.961 22.4698 94.1929 22.4219 94.441 22.3339ZM96.1303 23.6857L96.0822 23.7257C95.706 24.3177 94.6735 25.2616 92.6723 25.2616C91.8799 25.2536 91.2074 25.0456 90.6312 24.6536C90.0631 24.2537 89.6225 23.7177 89.3106 23.0538C89.0063 22.3819 88.8463 21.6459 88.8463 20.838C88.8463 19.8941 89.0225 19.0622 89.3588 18.3742C89.7032 17.6703 90.175 17.0944 90.8074 16.6384C91.4237 16.1744 92.1599 15.8305 93.0086 15.6145C93.8566 15.3905 94.7935 15.2785 95.8022 15.2785C95.8097 14.7906 95.746 14.3506 95.626 13.9587C95.4978 13.5827 95.266 13.2707 94.9298 13.0467C94.6017 12.8228 94.121 12.7028 93.5129 12.7028C92.9205 12.7028 92.3605 12.7988 91.8236 12.9828C91.2799 13.1667 90.7993 13.4067 90.3831 13.7027L89.7431 11.1509C90.0231 10.9589 90.3831 10.767 90.8156 10.567C91.2555 10.383 91.7518 10.223 92.3124 10.095C92.8805 9.96705 93.4885 9.91105 94.1529 9.90305C95.1453 9.91105 95.9541 10.079 96.6103 10.407C97.2665 10.735 97.779 11.1909 98.1552 11.7669C98.5315 12.3428 98.8033 12.9988 98.9633 13.7267C99.1239 14.4626 99.1958 15.2385 99.1958 16.0545V21.254C99.1958 21.9099 99.5558 22.6058 100.5 22.6618V25.4056C98.4596 25.9175 96.9784 25.3816 96.1303 23.6857ZM53.1799 22.3339C53.428 22.2379 53.6761 22.0939 53.9005 21.8939C54.1323 21.7019 54.3167 21.4299 54.4686 21.11C54.613 20.782 54.6929 20.39 54.7004 19.9181V17.9343C54.2123 17.9263 53.7405 17.9663 53.2843 18.0463C52.828 18.1183 52.4037 18.2542 52.0356 18.4462C51.6593 18.6462 51.3631 18.9182 51.1469 19.2542C50.9225 19.6061 50.8106 19.9021 50.8025 20.438C50.8106 20.902 50.8906 21.286 51.0431 21.5819C51.1868 21.8779 51.4031 22.0939 51.6512 22.2379C51.8993 22.3819 52.1793 22.4538 52.4755 22.4458C52.6999 22.4698 52.9318 22.4219 53.1799 22.3339ZM74.9032 24.9896L74.8714 10.167H78.5049L78.5449 24.9896H74.9032ZM116.269 25.1496C115.78 25.0616 115.332 24.9496 114.908 24.7976C114.492 24.6456 114.123 24.4777 113.803 24.2777L114.243 21.3899C114.499 21.5499 115.5 22.0379 116.501 22.2459C116.901 22.3499 117.309 22.3979 117.693 22.4059C118.342 22.3979 118.822 22.2619 119.126 21.9979C119.438 21.7259 119.59 21.3659 119.574 20.902C119.566 20.606 119.502 20.334 119.366 20.1021C119.238 19.8781 119.03 19.6621 118.726 19.4541C118.437 19.2542 118.029 19.0302 117.517 18.8062C116.645 18.4222 115.941 17.9983 115.404 17.5423C114.876 17.0704 114.484 16.5824 114.236 16.0625C113.988 15.5425 113.851 15.0066 113.843 14.4546C113.819 13.5507 114.011 12.7508 114.404 12.0388C114.796 11.3349 115.372 10.775 116.116 10.359C116.869 9.95104 117.757 9.74307 118.79 9.73507C119.502 9.74307 120.159 9.82306 120.759 9.98304C121.351 10.143 121.855 10.335 122.263 10.575L121.992 13.4307C121.679 13.2467 120.951 13.0068 120.487 12.8468C120.03 12.6788 119.534 12.5988 119.006 12.5828C118.445 12.5908 118.021 12.7348 117.741 12.9908C117.461 13.2547 117.317 13.5907 117.333 14.0067C117.333 14.2786 117.405 14.5186 117.549 14.7266C117.686 14.9426 117.917 15.1425 118.229 15.3345C118.55 15.5345 118.974 15.7505 119.51 15.9905C120.695 16.5104 121.583 17.1424 122.16 17.8863C122.744 18.6382 123.056 19.5261 123.08 20.55C123.104 21.5019 122.912 22.3339 122.504 23.0378C122.095 23.7417 121.487 24.2937 120.687 24.6856C119.887 25.0696 118.902 25.2696 117.749 25.2856C117.245 25.2616 116.741 25.2296 116.269 25.1496ZM41.0536 25.2776C39.693 25.2696 38.4925 25.0136 37.4438 24.5096C36.3953 24.0057 35.5149 23.2858 34.7945 22.3499C34.0821 21.4219 33.5378 20.31 33.1697 19.0302C32.7934 17.7423 32.6094 16.3184 32.6094 14.7506C32.6174 12.9108 32.8575 11.2949 33.3217 9.91905C33.7859 8.53518 34.4263 7.37529 35.2427 6.45538C36.0591 5.52747 36.9957 4.83154 38.06 4.36758C39.125 3.90363 40.2693 3.67165 41.478 3.67165C42.126 3.67165 42.7022 3.71964 43.1991 3.79964C44.3997 4.03961 45.6159 4.36758 46.8564 4.94353L46.5446 7.94324L45.4477 7.93524C44.239 7.19931 42.9666 7.05532 41.6379 7.05532C40.8855 7.05532 40.1811 7.20731 39.5331 7.50328C38.8843 7.80725 38.3081 8.26321 37.82 8.87915C37.3319 9.48709 36.9476 10.271 36.6754 11.2069C36.4033 12.1428 36.2592 13.2547 36.2512 14.5186C36.2592 16.1105 36.4833 17.4463 36.9155 18.5262C37.3556 19.6141 37.9718 20.43 38.7724 20.982C39.5812 21.5419 40.5255 21.8139 41.6217 21.8219C42.9104 21.7979 44.1516 21.5419 45.3359 21.006L46.4246 20.982L46.7608 24.0217C44.8797 25.0216 42.5023 25.3416 41.0536 25.2776ZM101.917 21.6539V2.35178L105.631 4.11161V21.206C105.639 22.2059 106.055 22.5578 106.752 22.5738V25.2536C103.43 25.7895 101.917 24.3577 101.917 21.6539ZM127.403 25.0536C126.898 24.7976 126.498 24.4697 126.209 24.0457C125.921 23.6377 125.713 23.1898 125.585 22.7098C125.45 22.2299 125.37 21.7739 125.337 21.318C125.305 20.862 125.289 20.478 125.297 20.1421L125.289 12.9668H123.616V10.175H125.289L125.297 5.00752L128.939 6.97533V10.167H131.444V13.0387H128.939V20.3021C128.939 21.326 129.083 21.7579 129.347 22.1579C129.619 22.5498 130.492 22.8698 131.444 22.6138V25.1656C131.252 25.2536 131.036 25.3096 130.812 25.3496C130.388 25.4056 129.899 25.4376 129.356 25.4376C128.571 25.4376 127.923 25.3016 127.403 25.0536ZM83.5397 25.0536C83.0353 24.7976 82.6354 24.4697 82.3472 24.0457C82.0591 23.6377 81.851 23.1898 81.7229 22.7098C81.5866 22.2299 81.5066 21.7739 81.4748 21.318C81.4422 20.862 81.4267 20.478 81.4348 20.1421L81.4267 12.9668H79.7536V10.175H81.4267L81.4422 4.99952L85.0846 6.96733V10.159H87.5895V13.0307H85.0846V20.2941C85.0846 21.318 85.2283 21.7499 85.4927 22.1499C85.7645 22.5418 86.637 22.8618 87.5895 22.6058V25.1576C87.3976 25.2456 87.1814 25.3016 86.9576 25.3416C86.5333 25.3976 86.0452 25.4296 85.5008 25.4296C84.7084 25.4376 84.0596 25.3016 83.5397 25.0536ZM54.8767 23.6857L54.8285 23.7257C54.4523 24.3177 53.4198 25.2616 51.4194 25.2616C50.6269 25.2536 49.9544 25.0456 49.3782 24.6536C48.8094 24.2537 48.3695 23.7177 48.0577 23.0538C47.7533 22.3819 47.5933 21.6459 47.5933 20.838C47.5933 19.8941 47.7689 19.0622 48.1051 18.3742C48.4495 17.6703 48.922 17.0944 49.5538 16.6384C50.1707 16.1744 50.9069 15.8305 51.7549 15.6145C52.6037 15.3905 53.5398 15.2785 54.5486 15.2785C54.5567 14.7906 54.493 14.3506 54.3723 13.9587C54.2442 13.5827 54.0123 13.2707 53.6761 13.0467C53.348 12.8228 52.868 12.7028 52.2593 12.7028C51.6675 12.7028 51.1069 12.7988 50.5706 12.9828C50.0263 13.1667 49.5463 13.4067 49.1301 13.7027L48.4895 11.1509C48.7694 10.9589 49.1301 10.767 49.5619 10.567C50.0026 10.383 50.4988 10.223 51.0587 10.095C51.6275 9.96705 52.2356 9.91105 52.8999 9.90305C53.8923 9.91105 54.7011 10.079 55.3573 10.407C56.0135 10.735 56.526 11.1909 56.9015 11.7669C57.2859 12.3428 57.5503 12.9988 57.7103 13.7267C57.8703 14.4626 57.9421 15.2385 57.9421 16.0545V21.254C57.9421 21.9099 58.3028 22.6058 59.2471 22.6618V25.4056C57.1978 25.9175 55.7173 25.3816 54.8767 23.6857ZM64.4656 29.6691L60.8876 27.9893V15.0066C60.8876 14.0626 60.8802 13.1907 60.8557 12.3908C60.8402 11.5989 60.8876 10.623 60.8557 9.95105H63.6175C63.7775 10.271 63.8975 10.607 63.9693 10.943C64.9543 10.191 66.1468 9.80706 67.5636 9.82306C69.0278 9.82306 69.981 10.199 70.749 10.831C71.5171 11.4469 72.1177 12.3188 72.5577 13.4467C72.9983 14.5746 73.222 15.8865 73.2302 17.4063C73.222 18.7582 73.062 19.9261 72.7502 20.91C72.4377 21.8939 72.014 22.6938 71.4934 23.3338C70.9653 23.9657 70.3728 24.4377 69.7247 24.7416C69.076 25.0456 68.396 25.1976 67.7073 25.1976C66.4511 25.2376 65.3543 24.9096 64.4656 24.1737V29.6691Z" fill="#8EA652"></path>
                        <path d="M36.5154 34.2527C36.5154 34.9166 36.3553 35.4526 36.0351 35.8606C35.715 36.2685 35.2747 36.4685 34.7225 36.4685C34.4343 36.4685 34.1862 36.4205 33.9781 36.3245C33.7619 36.2285 33.5778 36.0845 33.4338 35.8926V38.1483H32.5933V31.7729H33.2336L33.3697 32.3649C33.5218 32.1409 33.7059 31.9729 33.93 31.8609C34.1541 31.7409 34.4183 31.685 34.7144 31.685C35.2827 31.685 35.731 31.9089 36.0431 32.3649C36.3632 32.8208 36.5154 33.4208 36.5154 34.1647V34.2527ZM35.6749 34.1647C35.6749 33.6448 35.5708 33.2128 35.3627 32.8768C35.1546 32.5409 34.8505 32.3729 34.4503 32.3729C34.2102 32.3729 34.0021 32.4289 33.834 32.5409C33.6659 32.6529 33.5218 32.7969 33.4178 32.9888V35.2126C33.5218 35.4046 33.6579 35.5486 33.834 35.6606C34.0021 35.7646 34.2102 35.8206 34.4583 35.8206C34.8585 35.8206 35.1546 35.6766 35.3627 35.3886C35.5708 35.0926 35.6669 34.7247 35.6669 34.2607V34.1647H35.6749ZM40.3736 36.3805C40.3492 36.2445 40.3255 36.1165 40.3092 36.0125C40.293 35.9085 40.2855 35.7966 40.2855 35.6926C40.1255 35.9166 39.9249 36.1005 39.6768 36.2525C39.4286 36.4045 39.1568 36.4765 38.8687 36.4765C38.3881 36.4765 38.02 36.3565 37.7719 36.1085C37.5237 35.8606 37.3956 35.5246 37.3956 35.0926C37.3956 34.6527 37.5719 34.3087 37.9318 34.0607C38.2925 33.8128 38.7724 33.6848 39.3805 33.6848H40.293V33.2288C40.293 32.9568 40.213 32.7489 40.0449 32.5889C39.8774 32.4289 39.6449 32.3489 39.3487 32.3489C39.0768 32.3489 38.8606 32.4209 38.6925 32.5569C38.5243 32.6929 38.4362 32.8608 38.4362 33.0528H37.6356L37.6281 33.0288C37.6119 32.6929 37.7719 32.3889 38.1 32.1089C38.4362 31.8289 38.8687 31.693 39.3968 31.693C39.9174 31.693 40.3411 31.8289 40.6536 32.0929C40.9736 32.3569 41.1336 32.7409 41.1336 33.2448V35.4606C41.1336 35.6286 41.1417 35.7806 41.158 35.9405C41.1736 36.0925 41.2061 36.2445 41.2536 36.3885H40.3736V36.3805ZM38.9806 35.7726C39.2849 35.7726 39.5568 35.6926 39.8049 35.5406C40.053 35.3806 40.2055 35.2046 40.2855 35.0046V34.2527H39.3405C39.005 34.2527 38.7324 34.3407 38.5325 34.5087C38.3325 34.6767 38.2281 34.8766 38.2281 35.1086C38.2281 35.3166 38.2925 35.4766 38.4206 35.5966C38.5487 35.7086 38.7324 35.7726 38.9806 35.7726ZM43.7509 34.6767L43.9035 35.2526H43.9272L45.064 31.7729H46.0002L44.0635 37.0844C43.9435 37.3964 43.7828 37.6604 43.5591 37.8924C43.3429 38.1243 43.0466 38.2363 42.6785 38.2363C42.6148 38.2363 42.5267 38.2283 42.4223 38.2123C42.3185 38.1963 42.2385 38.1803 42.1823 38.1643L42.2704 37.5084C42.2541 37.5084 42.3023 37.5084 42.4223 37.5164C42.5422 37.5244 42.6148 37.5324 42.6466 37.5324C42.8229 37.5324 42.9747 37.4524 43.0866 37.2924C43.1991 37.1324 43.2947 36.9565 43.3747 36.7645L43.5747 36.2845L41.8623 31.7729H42.7985L43.7509 34.6767ZM47.4808 31.7729L47.537 32.3809C47.6889 32.1649 47.8814 31.9889 48.1132 31.8689C48.3458 31.749 48.6095 31.685 48.922 31.685C49.2257 31.685 49.4901 31.757 49.7144 31.9009C49.9381 32.0449 50.0981 32.2609 50.2107 32.5409C50.3544 32.2769 50.5469 32.0769 50.7869 31.9169C51.0269 31.765 51.3068 31.685 51.6193 31.685C52.0912 31.685 52.4593 31.8449 52.7318 32.1649C53.0036 32.4849 53.1399 32.9728 53.1399 33.6208V36.3725H52.2993V33.6128C52.2993 33.1568 52.2193 32.8368 52.0674 32.6529C51.9074 32.4609 51.6749 32.3729 51.3712 32.3729C51.0831 32.3729 50.8506 32.4689 50.6743 32.6689C50.4988 32.8688 50.3944 33.1168 50.3625 33.4208V33.4528V36.3805H49.5219V33.6208C49.5219 33.1888 49.4419 32.8768 49.2819 32.6769C49.122 32.4769 48.8894 32.3729 48.5857 32.3729C48.3295 32.3729 48.1214 32.4289 47.9533 32.5329C47.7851 32.6369 47.6651 32.7889 47.577 32.9728V36.3805H46.7364V31.7729H47.4808ZM56.2697 36.4685C55.6291 36.4685 55.1166 36.2525 54.7411 35.8286C54.3648 35.4046 54.1723 34.8446 54.1723 34.1647V33.9807C54.1723 33.3248 54.3648 32.7808 54.7567 32.3409C55.1492 31.9009 55.6054 31.685 56.1416 31.685C56.766 31.685 57.2303 31.8689 57.5503 32.2449C57.8703 32.6209 58.0303 33.1168 58.0303 33.7408V34.2607H55.0448L55.0292 34.2847C55.0366 34.7247 55.1492 35.0926 55.3647 35.3726C55.581 35.6606 55.8854 35.8046 56.2697 35.8046C56.5579 35.8046 56.806 35.7646 57.0222 35.6846C57.2378 35.6046 57.4222 35.4926 57.574 35.3486L57.9021 35.8926C57.734 36.0525 57.5184 36.1885 57.2541 36.3005C56.9741 36.4205 56.646 36.4685 56.2697 36.4685ZM56.1416 32.3489C55.8617 32.3489 55.621 32.4689 55.421 32.7089C55.221 32.9488 55.101 33.2448 55.0529 33.6048L55.061 33.6288H57.1903V33.5168C57.1903 33.1888 57.1022 32.9088 56.926 32.6929C56.7416 32.4609 56.486 32.3489 56.1416 32.3489ZM59.7196 31.7729L59.7752 32.4609C59.9277 32.2129 60.1195 32.0289 60.3514 31.8929C60.5839 31.757 60.8476 31.693 61.1439 31.693C61.6401 31.693 62.0244 31.8369 62.297 32.1249C62.5688 32.4209 62.7051 32.8688 62.7051 33.4768V36.3805H61.8645V33.4928C61.8645 33.0848 61.7845 32.7969 61.6245 32.6289C61.4645 32.4609 61.2164 32.3729 60.8876 32.3729C60.6476 32.3729 60.4314 32.4289 60.2477 32.5489C60.0633 32.6689 59.9114 32.8288 59.7996 33.0288V36.3885H58.959V31.7809H59.7196V31.7729ZM65.0343 30.6611V31.7729H65.9068V32.3969H65.0343V35.1966C65.0343 35.4126 65.0743 35.5646 65.1699 35.6526C65.258 35.7406 65.378 35.7886 65.5305 35.7886C65.5787 35.7886 65.6343 35.7806 65.6905 35.7726C65.7461 35.7646 65.8024 35.7486 65.8424 35.7326L65.9542 36.3085C65.8905 36.3565 65.8024 36.4045 65.6824 36.4365C65.5624 36.4685 65.4424 36.4845 65.3143 36.4845C64.9699 36.4845 64.7062 36.3805 64.4981 36.1725C64.2974 35.9645 64.1937 35.6446 64.1937 35.2046V32.4049H63.4575V31.7809H64.1937V30.6691H65.0343V30.6611ZM70.9171 35.1566C70.9171 34.9726 70.8453 34.8207 70.709 34.7007C70.5646 34.5807 70.3009 34.4767 69.9084 34.3887C69.3485 34.2687 68.9323 34.1007 68.6441 33.8927C68.3635 33.6848 68.2198 33.3968 68.2198 33.0368C68.2198 32.6609 68.3798 32.3409 68.6997 32.0769C69.0204 31.8129 69.4366 31.677 69.9403 31.677C70.4772 31.677 70.9009 31.8129 71.2215 32.0929C71.5415 32.3729 71.6852 32.7009 71.6778 33.1008L71.6696 33.1248H70.869C70.869 32.9248 70.7809 32.7409 70.6128 32.5809C70.4447 32.4209 70.2209 32.3409 69.9403 32.3409C69.6447 32.3409 69.4203 32.4049 69.276 32.5409C69.1322 32.6689 69.0604 32.8288 69.0604 33.0128C69.0604 33.1968 69.1241 33.3408 69.2522 33.4448C69.3804 33.5488 69.6447 33.6448 70.0284 33.7248C70.6128 33.8527 71.0453 34.0207 71.3252 34.2367C71.6052 34.4527 71.7496 34.7407 71.7496 35.1006C71.7496 35.5086 71.5815 35.8366 71.2534 36.0925C70.9253 36.3485 70.4928 36.4685 69.9566 36.4685C69.3722 36.4685 68.9079 36.3165 68.5716 36.0205C68.2361 35.7246 68.0754 35.3726 68.0917 34.9806L68.0998 34.9566H68.9004C68.916 35.2526 69.0278 35.4686 69.2285 35.6126C69.4366 35.7486 69.6766 35.8206 69.9566 35.8206C70.2528 35.8206 70.4847 35.7566 70.6609 35.6366C70.8372 35.5166 70.9171 35.3566 70.9171 35.1566ZM74.2151 34.6767L74.367 35.2526H74.3907L75.5276 31.7729H76.4637L74.527 37.0844C74.407 37.3964 74.247 37.6604 74.0226 37.8924C73.8064 38.1243 73.5101 38.2363 73.142 38.2363C73.0783 38.2363 72.9902 38.2283 72.8864 38.2123C72.7821 38.1963 72.7021 38.1803 72.6458 38.1643L72.7339 37.5084C72.7183 37.5084 72.7658 37.5084 72.8864 37.5164C73.0064 37.5244 73.0783 37.5324 73.1102 37.5324C73.2864 37.5324 73.4383 37.4524 73.5508 37.2924C73.6627 37.1324 73.7589 36.9565 73.8389 36.7645L74.0389 36.2845L72.3258 31.7729H73.262L74.2151 34.6767ZM79.8736 35.1566C79.8736 34.9726 79.8017 34.8207 79.6655 34.7007C79.5217 34.5807 79.2574 34.4767 78.8655 34.3887C78.3049 34.2687 77.8887 34.1007 77.6006 33.8927C77.3206 33.6848 77.1762 33.3968 77.1762 33.0368C77.1762 32.6609 77.3362 32.3409 77.6568 32.0769C77.9768 31.8129 78.393 31.677 78.8974 31.677C79.4336 31.677 79.858 31.8129 80.178 32.0929C80.4979 32.3729 80.6423 32.7009 80.6342 33.1008L80.626 33.1248H79.8255C79.8255 32.9248 79.738 32.7409 79.5699 32.5809C79.4018 32.4209 79.1774 32.3409 78.8974 32.3409C78.6012 32.3409 78.3768 32.4049 78.2331 32.5409C78.0887 32.6689 78.0168 32.8288 78.0168 33.0128C78.0168 33.1968 78.0805 33.3408 78.2086 33.4448C78.3368 33.5488 78.6012 33.6448 78.9855 33.7248C79.5699 33.8527 80.0017 34.0207 80.2817 34.2367C80.5623 34.4527 80.706 34.7407 80.706 35.1006C80.706 35.5086 80.5379 35.8366 80.2098 36.0925C79.8817 36.3485 79.4492 36.4685 78.913 36.4685C78.3286 36.4685 77.865 36.3165 77.5287 36.0205C77.1925 35.7246 77.0325 35.3726 77.0481 34.9806L77.0562 34.9566H77.8568C77.8724 35.2526 77.985 35.4686 78.1849 35.6126C78.393 35.7486 78.633 35.8206 78.913 35.8206C79.2092 35.8206 79.4418 35.7566 79.6173 35.6366C79.7854 35.5166 79.8736 35.3566 79.8736 35.1566ZM82.8591 30.6611V31.7729H83.7315V32.3969H82.8591V35.1966C82.8591 35.4126 82.899 35.5646 82.9953 35.6526C83.0834 35.7406 83.2034 35.7886 83.3553 35.7886C83.4034 35.7886 83.4597 35.7806 83.5159 35.7726C83.5715 35.7646 83.6278 35.7486 83.6678 35.7326L83.7796 36.3085C83.7159 36.3565 83.6278 36.4045 83.5078 36.4365C83.3878 36.4685 83.2678 36.4845 83.1397 36.4845C82.7953 36.4845 82.5309 36.3805 82.3228 36.1725C82.1228 35.9645 82.0191 35.6446 82.0191 35.2046V32.4049H81.2823V31.7809H82.0191V30.6691H82.8591V30.6611ZM86.677 36.4685C86.0371 36.4685 85.5246 36.2525 85.1483 35.8286C84.7721 35.4046 84.5802 34.8446 84.5802 34.1647V33.9807C84.5802 33.3248 84.7721 32.7808 85.1646 32.3409C85.5564 31.9009 86.0126 31.685 86.5489 31.685C87.1732 31.685 87.6376 31.8689 87.9582 32.2449C88.2782 32.6209 88.4382 33.1168 88.4382 33.7408V34.2607H85.4527L85.4364 34.2847C85.4446 34.7247 85.5564 35.0926 85.7727 35.3726C85.9889 35.6606 86.2933 35.8046 86.677 35.8046C86.9651 35.8046 87.2132 35.7646 87.4295 35.6846C87.6457 35.6046 87.8301 35.4926 87.982 35.3486L88.3101 35.8926C88.1419 36.0525 87.9257 36.1885 87.662 36.3005C87.3895 36.4205 87.0614 36.4685 86.677 36.4685ZM86.5489 32.3489C86.2689 32.3489 86.0289 32.4689 85.8289 32.7089C85.629 32.9488 85.509 33.2448 85.4608 33.6048L85.4683 33.6288H87.5976V33.5168C87.5976 33.1888 87.5094 32.9088 87.3339 32.6929C87.1576 32.4609 86.9014 32.3489 86.5489 32.3489ZM90.135 31.7729L90.1912 32.3809C90.3431 32.1649 90.5349 31.9889 90.7674 31.8689C90.9993 31.749 91.2637 31.685 91.5755 31.685C91.8799 31.685 92.1443 31.757 92.368 31.9009C92.5924 32.0449 92.7523 32.2609 92.8642 32.5409C93.0086 32.2769 93.2004 32.0769 93.4404 31.9169C93.6811 31.765 93.961 31.685 94.2729 31.685C94.7454 31.685 95.1135 31.8449 95.386 32.1649C95.6578 32.4849 95.7941 32.9728 95.7941 33.6208V36.3725H94.9535V33.6128C94.9535 33.1568 94.8735 32.8368 94.7216 32.6529C94.561 32.4609 94.3291 32.3729 94.0248 32.3729C93.7367 32.3729 93.5048 32.4689 93.3286 32.6689C93.1523 32.8688 93.0486 33.1168 93.0167 33.4208V33.4528V36.3805H92.1761V33.6208C92.1761 33.1888 92.0961 32.8768 91.9361 32.6769C91.7762 32.4769 91.5436 32.3729 91.2393 32.3729C90.9837 32.3729 90.7756 32.4289 90.6075 32.5329C90.4393 32.6369 90.3194 32.7889 90.2312 32.9728V36.3805H89.3906V31.7729H90.135Z" fill="#2B2D2D"></path>
                    </svg>
