 <svg width="130" height="40" viewBox="0 0 130 40" fill="none">
                        <path d="M48.447 10.0756H41.2771C40.7865 10.0756 40.3692 10.432 40.2927 10.9164L37.3928 29.3019C37.3352 29.6647 37.6161 29.9918 37.9841 29.9918H41.4071C41.8977 29.9918 42.315 29.6353 42.3915 29.1499L43.1736 24.191C43.2491 23.7056 43.6674 23.3492 44.157 23.3492H46.4268C51.1498 23.3492 53.8756 21.0637 54.5874 16.5347C54.9082 14.5532 54.6011 12.9964 53.6732 11.906C52.6542 10.7088 50.8468 10.0756 48.447 10.0756ZM49.2742 16.7905C48.8821 19.3632 46.9164 19.3632 45.0156 19.3632H43.9337L44.6927 14.5585C44.7378 14.2681 44.9894 14.0542 45.283 14.0542H45.7789C47.0736 14.0542 48.295 14.0542 48.9261 14.7923C49.3025 15.2326 49.4178 15.8868 49.2742 16.7905Z" fill="#253B80"></path>
                        <path d="M69.8792 16.7077H66.4457C66.1532 16.7077 65.9006 16.9215 65.8555 17.2119L65.7035 18.1723L65.4634 17.8242C64.7201 16.7454 63.0626 16.3848 61.4082 16.3848C57.6141 16.3848 54.3736 19.2584 53.7424 23.2894C53.4143 25.3003 53.8808 27.223 55.0215 28.5639C56.0677 29.7968 57.5648 30.3105 59.346 30.3105C62.4031 30.3105 64.0984 28.3448 64.0984 28.3448L63.9453 29.2988C63.8877 29.6636 64.1686 29.9907 64.5345 29.9907H67.6273C68.119 29.9907 68.5341 29.6343 68.6117 29.1489L70.4673 17.3975C70.5261 17.0358 70.2461 16.7077 69.8792 16.7077ZM65.0933 23.3901C64.762 25.3516 63.2052 26.6684 61.2195 26.6684C60.2225 26.6684 59.4257 26.3486 58.9141 25.7427C58.4067 25.1409 58.2138 24.2844 58.3752 23.3303C58.6845 21.3856 60.2676 20.0258 62.2228 20.0258C63.1978 20.0258 63.9904 20.3498 64.5125 20.961C65.0356 21.5785 65.2432 22.4402 65.0933 23.3901Z" fill="#253B80"></path>
                        <path d="M88.1652 16.7076H84.7149C84.3857 16.7076 84.0765 16.8712 83.8898 17.1448L79.1312 24.1543L77.1141 17.4184C76.9873 16.997 76.5983 16.7076 76.158 16.7076H72.7675C72.3555 16.7076 72.0693 17.1102 72.2003 17.4981L76.0007 28.6509L72.4278 33.6947C72.1469 34.092 72.4299 34.6382 72.9153 34.6382H76.3614C76.6885 34.6382 76.9946 34.4789 77.1802 34.2105L88.6558 17.6459C88.9305 17.2497 88.6485 16.7076 88.1652 16.7076Z" fill="#253B80"></path>
                        <path d="M99.5884 10.0756H92.4174C91.9278 10.0756 91.5106 10.432 91.434 10.9164L88.5342 29.3019C88.4765 29.6647 88.7575 29.9918 89.1234 29.9918H92.8032C93.145 29.9918 93.4375 29.7423 93.491 29.4026L94.314 24.191C94.3894 23.7056 94.8077 23.3492 95.2973 23.3492H97.5661C102.29 23.3492 105.015 21.0637 105.728 16.5347C106.05 14.5532 105.74 12.9964 104.813 11.906C103.795 10.7088 101.988 10.0756 99.5884 10.0756ZM100.416 16.7905C100.025 19.3632 98.0588 19.3632 96.157 19.3632H95.0761L95.8362 14.5585C95.8813 14.2681 96.1308 14.0542 96.4254 14.0542H96.9213C98.215 14.0542 99.4374 14.0542 100.069 14.7923C100.445 15.2326 100.559 15.8868 100.416 16.7905Z" fill="#179BD7"></path>
                        <path d="M121.02 16.7077H117.588C117.294 16.7077 117.043 16.9215 116.999 17.2119L116.847 18.1723L116.606 17.8242C115.862 16.7454 114.206 16.3848 112.552 16.3848C108.758 16.3848 105.518 19.2584 104.887 23.2894C104.56 25.3003 105.024 27.223 106.165 28.5639C107.213 29.7968 108.708 30.3105 110.49 30.3105C113.547 30.3105 115.242 28.3448 115.242 28.3448L115.089 29.2988C115.031 29.6636 115.312 29.9907 115.68 29.9907H118.772C119.261 29.9907 119.679 29.6343 119.755 29.1489L121.612 17.3975C121.668 17.0358 121.387 16.7077 121.02 16.7077ZM116.234 23.3901C115.904 25.3516 114.345 26.6684 112.36 26.6684C111.365 26.6684 110.566 26.3486 110.054 25.7427C109.547 25.1409 109.356 24.2844 109.516 23.3303C109.827 21.3856 111.408 20.0258 113.363 20.0258C114.338 20.0258 115.131 20.3498 115.653 20.961C116.178 21.5785 116.386 22.4402 116.234 23.3901Z" fill="#179BD7"></path>
                        <path d="M125.067 10.5798L122.125 29.3019C122.067 29.6647 122.348 29.9918 122.714 29.9918H125.672C126.164 29.9918 126.581 29.6353 126.657 29.1499L129.559 10.7654C129.616 10.4027 129.335 10.0745 128.969 10.0745H125.657C125.364 10.0756 125.112 10.2894 125.067 10.5798Z" fill="#179BD7"></path>
                        <path d="M7.61758 33.5647L8.16588 30.0819L6.94451 30.0536H1.11234L5.1654 4.35452C5.17798 4.27693 5.21887 4.2046 5.27863 4.15322C5.33838 4.10185 5.41492 4.07355 5.49459 4.07355H15.3285C18.5931 4.07355 20.8461 4.7529 22.0224 6.09379C22.5739 6.72282 22.9251 7.38016 23.0949 8.10355C23.2731 8.86258 23.2763 9.76943 23.1023 10.8755L23.0897 10.9562V11.6649L23.6411 11.9773C24.1056 12.2237 24.4746 12.5057 24.7577 12.8286C25.2294 13.3665 25.5345 14.05 25.6635 14.8604C25.7966 15.6939 25.7526 16.6856 25.5345 17.8085C25.2829 19.1001 24.8761 20.225 24.3268 21.1455C23.8214 21.9936 23.1777 22.6971 22.4135 23.2423C21.6838 23.7602 20.8168 24.1533 19.8365 24.4049C18.8867 24.6523 17.8037 24.7771 16.6159 24.7771H15.8506C15.3033 24.7771 14.7718 24.9742 14.3545 25.3275C13.9362 25.6881 13.6594 26.1809 13.5745 26.7198L13.5169 27.0332L12.5481 33.1715L12.5041 33.3969C12.4926 33.4682 12.4727 33.5039 12.4433 33.528C12.4171 33.55 12.3794 33.5647 12.3427 33.5647H7.61758Z" fill="#253B80"></path>
                        <path d="M24.1632 11.038C24.1339 11.2256 24.1003 11.4175 24.0626 11.6146C22.7657 18.2729 18.329 20.573 12.6624 20.573H9.77726C9.08428 20.573 8.50032 21.0763 8.39234 21.7598L6.91516 31.1282L6.49686 33.7838C6.42661 34.2325 6.77258 34.6372 7.22549 34.6372H12.3427C12.9486 34.6372 13.4634 34.1968 13.5588 33.5993L13.6091 33.3393L14.5726 27.2251L14.6344 26.8896C14.7288 26.2899 15.2446 25.8496 15.8506 25.8496H16.6159C21.5737 25.8496 25.4548 23.8367 26.5892 18.0118C27.0631 15.5785 26.8177 13.5468 25.5639 12.1178C25.1844 11.6869 24.7136 11.3294 24.1632 11.038Z" fill="#179BD7"></path>
                        <path d="M22.8066 10.497C22.6085 10.4393 22.404 10.3869 22.1944 10.3398C21.9836 10.2936 21.7677 10.2527 21.5454 10.2171C20.7675 10.0913 19.9152 10.0315 19.002 10.0315H11.2943C11.1045 10.0315 10.9242 10.0745 10.7627 10.1521C10.4073 10.323 10.1431 10.6595 10.0792 11.0715L8.43952 21.4568L8.39234 21.7598C8.50033 21.0763 9.08428 20.5731 9.77726 20.5731H12.6624C18.329 20.5731 22.7657 18.2718 24.0626 11.6146C24.1014 11.4175 24.1339 11.2256 24.1632 11.038C23.8351 10.8639 23.4797 10.7151 23.097 10.5882C23.0027 10.5568 22.9052 10.5264 22.8066 10.497Z" fill="#222D65"></path>
                        <path d="M10.0792 11.0715C10.1431 10.6595 10.4073 10.323 10.7627 10.1531C10.9252 10.0756 11.1045 10.0326 11.2943 10.0326H19.002C19.9152 10.0326 20.7675 10.0923 21.5454 10.2181C21.7677 10.2538 21.9836 10.2947 22.1944 10.3408C22.404 10.388 22.6085 10.4404 22.8066 10.4981C22.9052 10.5274 23.0027 10.5578 23.0981 10.5882C23.4807 10.7151 23.8361 10.865 24.1643 11.038C24.5501 8.57742 24.1611 6.9021 22.8307 5.38508C21.364 3.715 18.7169 3 15.3295 3H5.49565C4.80371 3 4.21347 3.50323 4.10654 4.18782L0.0104874 30.1511C-0.0702384 30.6648 0.326052 31.1282 0.843955 31.1282H6.91517L8.43952 21.4569L10.0792 11.0715Z" fill="#253B80"></path>
                    </svg>