   <svg width="130" height="40" viewBox="0 0 130 40" fill="none">
                        <path d="M18.5577 37.4413C28.1204 37.4413 35.8725 29.6892 35.8725 20.1265C35.8725 10.5638 28.1204 2.81175 18.5577 2.81175C8.99501 2.81175 1.24292 10.5638 1.24292 20.1265C1.24292 29.6892 8.99501 37.4413 18.5577 37.4413Z" fill="#26A17B"></path>
                        <path d="M20.4033 21.7244V21.7216C20.2836 21.73 19.6656 21.7661 18.2905 21.7661C17.1909 21.7661 16.4198 21.7355 16.147 21.7216V21.7244C11.9185 21.5379 8.76455 20.803 8.76455 19.9205C8.76455 19.0409 11.9213 18.3032 16.147 18.1167V20.9923C16.4226 21.0118 17.2159 21.0591 18.3099 21.0591C19.6239 21.0591 20.2808 21.0034 20.4033 20.9923V18.1195C24.6234 18.3088 27.769 19.0437 27.769 19.9233C27.769 20.803 24.6207 21.5379 20.4033 21.7272V21.7244ZM20.4033 17.8216V15.2494H26.2909V11.3272H10.2622V15.2494H16.1498V17.8216C11.3645 18.0415 7.76797 18.988 7.76797 20.1238C7.76797 21.2595 11.3673 22.206 16.1498 22.4287V30.6741H20.4061V22.4287C25.183 22.2088 28.774 21.2623 28.774 20.1265C28.774 18.9936 25.183 18.0443 20.4061 17.8244" fill="white"></path>
                        <path d="M50.5803 12.3989V16.5578H54.6223V19.6784H50.5525V26.0058C50.5525 27.4032 51.3236 28.0852 52.4537 28.0852C53.0188 28.0852 53.673 27.9071 54.2075 27.6398L55.218 30.7298C54.1797 31.1445 53.3167 31.3227 52.2171 31.3533C49.0381 31.473 46.9587 29.6608 46.9587 26.0058V19.6784H44.2251V16.5578H46.9587V12.7859L50.5803 12.3989ZM120.265 16.3629L120.533 18.0554C121.663 16.2432 123.177 15.976 124.664 15.976C126.178 15.976 127.634 16.5689 128.436 17.3707L126.801 20.519C126.058 19.8955 125.376 19.567 124.188 19.567C122.286 19.567 120.533 20.5775 120.533 23.2805V31.0053H116.908V16.3574L120.265 16.3629ZM111.382 21.9777C111.146 20.0764 109.659 19.1244 107.58 19.1244C105.62 19.1244 104.014 20.0764 103.479 21.9777H111.382ZM103.421 24.9786C103.658 26.7908 105.233 28.0991 107.789 28.0991C109.125 28.0991 110.879 27.5925 111.711 26.7323L114.027 29.0205C112.482 30.624 109.957 31.3979 107.727 31.3979C102.678 31.3979 99.6741 28.2773 99.6741 23.5839C99.6741 19.1272 102.706 15.9175 107.46 15.9175C112.362 15.9175 115.424 18.949 114.859 24.9786H103.421ZM87.4368 10.2109V18.3505C88.7452 16.658 90.3486 16.1514 92.0133 16.1514C96.1722 16.1514 98.015 18.9741 98.015 23.2833V31.0081H94.3906V23.3139C94.3906 20.6387 92.9931 19.5113 91.0612 19.5113C88.9206 19.5113 87.4368 21.3235 87.4368 23.5227V31.0109H83.8124V10.2137L87.4368 10.2109ZM77.8107 12.2319V16.3908H81.8527V19.5113H77.7829V25.8387C77.7829 27.2362 78.5567 27.9182 79.6842 27.9182C80.2492 27.9182 80.9034 27.74 81.4379 27.4728L82.4484 30.5627C81.4101 30.9775 80.5471 31.1557 79.4475 31.1863C76.2685 31.306 74.1891 29.491 74.1891 25.8387V19.5113H71.4555V16.3908H74.1891V12.6188L77.8107 12.2319ZM67.7976 21.9777C67.561 20.0764 66.0745 19.1244 63.9951 19.1244C62.0353 19.1244 60.4291 20.0764 59.8946 21.9777H67.7976ZM59.8362 24.9786C60.0728 26.7908 61.6484 28.0991 64.2039 28.0991C65.54 28.0991 67.2938 27.5925 68.1261 26.7323L70.4422 29.0205C68.8972 30.624 66.3724 31.3979 64.1426 31.3979C59.0901 31.3979 56.0893 28.2773 56.0893 23.5839C56.0893 19.1272 59.1208 15.9175 63.8726 15.9175C68.7747 15.9175 71.834 18.949 71.2717 24.9786H59.8362Z" fill="#5B5A5D"></path>
                    </svg>