     <svg width="130px" height="31px" data-name="Layer 1" viewBox="0 0 859 205.92">
                        <defs>
                            <mask id="a" width="104" height="90.92" x="0" y="40.92" maskUnits="userSpaceOnUse">
                                <path fill="#fff" d="M65.5 74.65v90.91h104V74.65h-104z" transform="translate(-65.5 -33.73)"></path>
                            </mask>
                        </defs>
                        <path fill="#036cb5" d="M758.5 0a100.88 100.88 0 0 1 43.76 10c2.09.94 4.2 2.07 6.28 3.2l-9.04 8.07-13.7-14.11-23.64 20.68-13.89-14.86-43.38 38.56 27.77 30.28-10.84 9.45 27.4 30.28-10.84 9.4 39.2 43.07 23.19-21.07 20.18 22.58a112.89 112.89 0 0 1-13.12 8.66 100.44 100.44 0 0 1-49.1 12.78c-55 0-99.69-44.2-99.69-98.55C658.84 44.39 703.56 0 758.5 0zm-18.27 92.36l23.83-21.09 21.31 23.51-23.79 21.09zm16.94 40.63l23.59-21.26 21.54 23.54-23.8 21zm-33.82-80.72l23.78-21 21.31 23.51-23.79 21.06zm43.56-11.29l17.7-15.8 16 17.49-17.69 16zm31.59 72.44l17.69-15.8 16 17.68-17.69 15.81zm15.6 35.55l17.7-15.8 16 17.49-17.69 16zm7.23-81.25l11.8-10.54 10.65 11.67-11.8 10.53zm-15.22-34.8l11.8-10.72 10.65 11.85-11.8 10.53zm30.25 69.59l11.8-10.53L859 103.64l-12 10.53zm-53.08-26.14l17.69-15.8 16 17.49-17.69 15.8z"></path>
                        <g mask="url(#a)">
                            <path fill="#036cb5" d="M52.19 67.84h-.9l-16.85 63.99H20.67L0 40.91h14.29l14.29 67.84h.89l16.59-67.84h11.36l17.74 67.84h.89l13.01-67.84H104l-20.68 90.92H69.54L52.19 67.84z"></path>
                        </g>
                        <path fill="#036cb5" d="M122.12 93.13h29.22c-.64-13.46-7.15-18.84-14-18.84-7.79 0-13.79 6-15.19 18.84m39.35 24.14v9.75a44.84 44.84 0 0 1-22.58 5.9c-21.43 0-30.23-13.34-30.23-33.59 0-19.5 9.82-33.61 29-33.61 15.94 0 25.77 10.4 25.77 31.29v4.75h-41.59c0 15.38 6.25 22.18 19.39 22.18 6.89 0 13.27-2.44 20.28-6.67M193.14 122.61a29.64 29.64 0 0 0 11.75 2.06c9.44 0 16.58-5.91 16.58-26.68 0-16.28-5.87-21.54-14.42-21.54-5.1 0-8.8 1.42-13.91 4.23v41.93zm.14-51.42c3.82-2 10.32-4.74 17.21-4.74 15.83 0 24.38 11 24.38 31.54 0 24-11.49 35.65-30 35.65a58.86 58.86 0 0 1-24.89-6.29v-89.5l13.28-3.2v36.54zM292.3 112.54h.64l27.3-71.68h15.83v90.92h-13.78V65.86h-1.15l-26.04 65.92h-8.16L260.9 67.41h-1.14v64.37h-11.48V40.86h15.44l28.58 71.68zM392.37 99.27c0-17.31-7-24.61-15.69-24.61-8.42 0-15.7 7.3-15.7 24.61 0 17.57 6.65 24.62 15.7 24.62s15.69-7 15.69-24.62m-44.78 0c0-22.45 12.25-33.6 29.09-33.6s29.09 11.15 29.09 33.6c0 21.93-11.61 33.6-29.09 33.6s-29.09-11.6-29.09-33.6M415.87 75.19c5.74-3.47 17.86-9.5 32.53-9.5 15.31 0 21.05 6 21.05 19.23v46.43h-13.26V87.88c0-10.13-5-11.93-11.49-11.93-5.1 0-11.61 2.32-15.56 4.62v50.78h-13.27V75.19zM497.5 93.13h29.22c-.63-13.46-7.14-18.84-14-18.84-7.79 0-13.78 6-15.19 18.84m39.43 24.14v9.75a44.88 44.88 0 0 1-22.59 5.9c-21.42 0-30.23-13.34-30.23-33.59 0-19.5 9.82-33.61 29-33.61 16 0 25.78 10.4 25.78 31.29v4.75h-41.6c0 15.38 6.26 22.18 19.4 22.18 6.88 0 13.27-2.44 20.28-6.67M591.88 65.69h13.62l-23.1 64.11c-6.39 17.7-14.16 26.93-28.83 26.93v-10.46c8.68 0 14-6.93 17.1-16.42l-24.5-64.11h14l16.33 47.19h.76z"></path>
                        <path fill="#b6b6b6" d="M137.82 190.93v-5.54a29.82 29.82 0 0 0 13.5 3.61c3.55 0 6.28-.65 8.18-2a6.11 6.11 0 0 0 2.85-5.3 5.76 5.76 0 0 0-2.34-5 43.65 43.65 0 0 0-8.75-4.13c-1.48-.55-2.43-.91-2.86-1.09l-2.47-1a17.29 17.29 0 0 1-2.43-1.21c-.39-.27-1-.66-1.94-1.16a6.67 6.67 0 0 1-1.84-1.38c-.31-.41-.75-.93-1.3-1.56a5.07 5.07 0 0 1-1.11-1.86 21.84 21.84 0 0 1-.53-2.15 13 13 0 0 1-.26-2.64 10.93 10.93 0 0 1 4-8.82q4-3.34 11.12-3.34a35.37 35.37 0 0 1 12.49 2.32v5.85a27 27 0 0 0-12-3c-2.84 0-5 .59-6.34 1.79a6 6 0 0 0-2.1 4.77 5.71 5.71 0 0 0 2.1 4.79 29.26 29.26 0 0 0 7.48 3.64q9.26 3.42 12.74 6.18c2.32 1.84 3.49 4.6 3.49 8.24a11.28 11.28 0 0 1-4.79 9.37q-4.78 3.63-13.15 3.63a30 30 0 0 1-13.74-3.01zm64.5 2.12h-6l-.45-3.73q-5.44 4.5-10.9 4.51a9.64 9.64 0 0 1-7.07-2.48 8.45 8.45 0 0 1-2.5-6.28 10.23 10.23 0 0 1 .73-3.83 11 11 0 0 1 2.37-3.57 11.89 11.89 0 0 1 5.07-2.8 27.35 27.35 0 0 1 8.14-1.06h3.94v-1.74q0-4.31-1.59-5.89c-1.06-1-2.83-1.57-5.33-1.57q-4.56 0-11.21 3.79v-5.13a32 32 0 0 1 13.43-3.16q6.4 0 8.88 2.64t2.47 8v22.33zm-6.59-14.78h-3.36q-10.41 0-10.4 6.25a3.64 3.64 0 0 0 1.39 3.18 5.85 5.85 0 0 0 3.49 1 12 12 0 0 0 8.88-4.25v-6.18zm16.89 27.62V164.8a22.54 22.54 0 0 1 6.59-3.41 23.22 23.22 0 0 1 7.48-1.29q13.19 0 13.19 16.16 0 8.35-3.43 12.8t-9.82 4.44a12 12 0 0 1-7.42-2.25v14.68zm6.53-38.95v19.51a8 8 0 0 0 3.2 1.83 11.39 11.39 0 0 0 3.39.61 6.45 6.45 0 0 0 5.49-2.73q2-2.75 2-9.94c0-3.91-.68-6.77-2.06-8.56a6.42 6.42 0 0 0-5.36-2.71 11.58 11.58 0 0 0-6.66 2.03zm35.85-6.55v32.62h-6.6v-31zm-7.61-9.47a4.23 4.23 0 0 1 1.3-3.06 4.09 4.09 0 0 1 6 0 4.25 4.25 0 0 1 0 6.12 4.09 4.09 0 0 1-6 0 4.22 4.22 0 0 1-1.3-3.02zm32.3 38.36q4.56 0 10.08-3.35v4.89a21.79 21.79 0 0 1-11.22 3q-7.74 0-11.38-4.45t-3.67-12.41q0-7.59 3.74-12.22c2.5-3.09 6-4.64 10.65-4.64 4.06 0 7.2 1.33 9.45 4s3.36 6.57 3.36 11.71v2.39h-20.65q0 5.73 2.35 8.42t7.29 2.7zm-2-24.9a6.36 6.36 0 0 0-5 2.37c-1.35 1.59-2.19 4-2.53 7.08h14.51c-.17-3.17-.9-5.54-2.22-7.1a6 6 0 0 0-4.73-2.31zm21.39 28.63v-28.15a30.66 30.66 0 0 1 16.17-4.76q5.64 0 8.05 2.32t2.41 7.33v23.3h-6.59v-21.78c0-2.35-.49-3.94-1.46-4.75a6.43 6.43 0 0 0-4.25-1.23 15.22 15.22 0 0 0-7.73 2.32v25.48zm43.2-31.4h10l-1.58 4.38h-8.44v17q0 6.44 5.46 6.44a11 11 0 0 0 4.25-.9v4.11a19.47 19.47 0 0 1-7.11 1.17q-4.76 0-7-2.75a11 11 0 0 1-2.22-7.17V157.4l6.59-4.83v9.08zm22.92-1.22v32.62h-6.59v-31zm-7.6-9.47a4.26 4.26 0 0 1 1.29-3.06 4.11 4.11 0 0 1 3-1.32 4.07 4.07 0 0 1 3 1.32 4.23 4.23 0 0 1 0 6.12 4.07 4.07 0 0 1-3 1.32 4.11 4.11 0 0 1-3-1.32 4.25 4.25 0 0 1-1.26-3.02zm52.48 11.72v5.14a17.06 17.06 0 0 0-9.63-3.21 7.75 7.75 0 0 0-4.06 1 3.34 3.34 0 0 0-1.59 3.08 3.66 3.66 0 0 0 1.75 3.19 22.27 22.27 0 0 0 5.48 2.41c1.4.48 2.44.84 3.14 1.1a25.87 25.87 0 0 1 2.76 1.29 9.9 9.9 0 0 1 2.56 1.8 9.33 9.33 0 0 1 1.56 2.39 7.6 7.6 0 0 1 .69 3.27 8.41 8.41 0 0 1-3.51 7.09c-2.35 1.75-5.49 2.64-9.42 2.64a19.75 19.75 0 0 1-11-2.84v-5c3.71 2.23 7.12 3.35 10.2 3.35 4.65 0 7-1.54 7-4.64a3.45 3.45 0 0 0-.42-1.67 4.43 4.43 0 0 0-.95-1.25 8.27 8.27 0 0 0-1.74-1.1 21 21 0 0 0-2-.9l-2.6-.93c-1.73-.64-3.1-1.2-4.12-1.67a17.85 17.85 0 0 1-3-1.84 6.7 6.7 0 0 1-2.22-2.67 8.93 8.93 0 0 1-.7-3.67 8.16 8.16 0 0 1 1.27-4.62 7.1 7.1 0 0 1 3.3-2.78 18.79 18.79 0 0 1 3.7-1.15 17.32 17.32 0 0 1 3.33-.33 21.64 21.64 0 0 1 10.25 2.56zm35 30.37h-6l-.44-3.73q-5.46 4.5-10.9 4.51a9.62 9.62 0 0 1-7.07-2.48 8.45 8.45 0 0 1-2.51-6.28 10.43 10.43 0 0 1 .73-3.83 11.2 11.2 0 0 1 2.41-3.57 12 12 0 0 1 5.07-2.8 27.42 27.42 0 0 1 8.15-1.06h3.98v-1.7q0-4.31-1.58-5.89c-1.07-1-2.84-1.57-5.33-1.57q-4.56 0-11.22 3.79v-5.13a32 32 0 0 1 13.44-3.16c4.27 0 7.22.88 8.87 2.64s2.47 4.42 2.47 8v22.33zm-6.53-14.74h-3.37q-10.4 0-10.39 6.25a3.64 3.64 0 0 0 1.39 3.18 5.81 5.81 0 0 0 3.49 1 11 11 0 0 0 5.13-1.29 10.83 10.83 0 0 0 3.75-3v-6.14zm23.16-16.66h10l-1.59 4.38h-8.43v17q0 6.44 5.45 6.44a11 11 0 0 0 4.25-.9v4.11a19.43 19.43 0 0 1-7.11 1.17q-4.74 0-7-2.75a11 11 0 0 1-2.22-7.17V157.4l6.59-4.83v9.08z"></path>
                    </svg>